<svg width="26" height="29" viewBox="0 0 26 29" fill="none" xmlns="http://www.w3.org/2000/svg">
<g clip-path="url(#clip0_68_1132)">
<path d="M13.8159 21.9392H5.11743C4.22897 21.9392 3.49696 21.1641 3.49696 20.1731V4.08329C3.49696 3.09232 4.22897 2.31258 5.11743 2.31258H16.3792C17.2685 2.31258 18.0129 3.09232 18.0129 4.08329V15.0281L19.0265 16.2983L20.0615 15.0061C20.0747 14.9904 20.0862 14.9776 20.0862 14.962V2.36034C20.0862 1.0571 19.1475 0 17.9783 0H3.43274C2.31125 0 1.42444 1.01393 1.42444 2.26482V21.9557C1.42444 23.2599 2.34913 24.3197 3.51837 24.3197H12.5322C12.5471 24.3197 12.5619 24.2701 12.5775 24.2518L14.1247 22.3304L13.8159 21.9392Z" fill="#E32400"/>
<path d="M15.5113 5.3269H6.17385C5.59993 5.3269 5.13635 5.84397 5.13635 6.48411C5.13635 7.12333 5.59993 7.63948 6.17385 7.63948H15.5113C16.0869 7.63948 16.5521 7.12241 16.5521 6.48411C16.5521 5.84306 16.0869 5.3269 15.5113 5.3269Z" fill="#E32400"/>
<path d="M15.5113 9.1814H6.17385C5.59993 9.1814 5.13635 9.66265 5.13635 10.3028C5.13635 10.9393 5.59993 11.4242 6.17385 11.4242H15.5113C16.0869 11.4242 16.5521 10.9393 16.5521 10.3028C16.5521 9.66357 16.0869 9.1814 15.5113 9.1814Z" fill="#E32400"/>
<path d="M12.8402 14.7102C13.8769 13.666 15.3038 13.4005 16.5307 13.9038C16.4377 13.373 16.0177 12.967 15.5113 12.967H6.17385C5.59993 12.967 5.13635 13.485 5.13635 14.1233C5.13635 14.7607 5.59993 15.2796 6.17385 15.2796H12.3717C12.5083 15.0675 12.6648 14.8865 12.8402 14.7102Z" fill="#E32400"/>
<path d="M6.17385 16.6821C5.59993 16.6821 5.13635 17.1982 5.13635 17.8384C5.13635 18.4785 5.59993 18.9946 6.17385 18.9946H11.8257C11.6051 18.2232 11.5837 17.4526 11.7574 16.6812L6.17385 16.6821Z" fill="#E32400"/>
<path d="M21.4621 22.3469L22.6832 20.8352L24.1061 19.0773C24.7755 18.2471 24.7187 16.9641 23.9735 16.2165C23.2258 15.467 22.0796 15.5341 21.4069 16.3634L20.2377 17.8108L19.0157 19.3226L16.6229 16.3625C15.9527 15.5341 14.804 15.4643 14.0563 16.2155C13.3112 16.9641 13.2527 18.2462 13.9246 19.0764L16.5686 22.3469L15.3483 23.8586L13.9246 25.6146C13.2535 26.4458 13.312 27.7279 14.0572 28.4764C14.4055 28.8264 14.8394 28.9972 15.2725 28.9972C15.7699 28.9972 16.2631 28.7722 16.6237 28.3277L17.793 26.8839L19.0149 25.3722L21.4077 28.3304C21.7684 28.7731 22.2616 28.9999 22.759 28.9999C23.1913 28.9999 23.6277 28.8273 23.9768 28.4801C24.7211 27.7325 24.7813 26.4495 24.1085 25.6192L21.4621 22.3469Z" fill="#E32400"/>
</g>
<defs>
<clipPath id="clip0_68_1132">
<rect width="26" height="29" fill="white"/>
</clipPath>
</defs>
</svg>
