<svg width="41" height="35" viewBox="0 0 41 35" fill="none" xmlns="http://www.w3.org/2000/svg">
<path fill-rule="evenodd" clip-rule="evenodd" d="M6.83337 6.84595V27.2626C6.83337 29.6789 9.12792 31.6376 11.9584 31.6376H29.0417C31.8722 31.6376 34.1667 29.6789 34.1667 27.2626V12.6793C34.1667 10.263 31.8722 8.30428 29.0417 8.30428H8.54171C7.59823 8.30428 6.83337 7.65136 6.83337 6.84595ZM12.3855 17.0542C12.3855 16.4502 12.9591 15.9605 13.6667 15.9605H27.3334C28.041 15.9605 28.6146 16.4502 28.6146 17.0542C28.6146 17.6583 28.041 18.148 27.3334 18.148H13.6667C12.9591 18.148 12.3855 17.6583 12.3855 17.0542ZM12.3855 22.1584C12.3855 21.5543 12.9591 21.0646 13.6667 21.0646H23.0625C23.7701 21.0646 24.3438 21.5543 24.3438 22.1584C24.3438 22.7624 23.7701 23.2521 23.0625 23.2521H13.6667C12.9591 23.2521 12.3855 22.7624 12.3855 22.1584Z" fill="#1C274D"/>
<path opacity="0.5" d="M30.75 5.83397V8.55326C30.2157 8.39204 29.6406 8.30433 29.0417 8.30433H8.54171C7.59823 8.30433 6.83337 7.6514 6.83337 6.84599V6.74238C6.83337 5.96506 7.50292 5.30604 8.40434 5.19611L26.8503 2.94661C28.9085 2.69559 30.75 4.05903 30.75 5.83397Z" fill="#1C274D"/>
</svg>
