<svg width="40" height="40" viewBox="0 0 20 20" fill="none" xmlns="http://www.w3.org/2000/svg">
<path d="M11.1485 0.751496C10.6799 0.282867 9.92011 0.282867 9.45148 0.751496L1.05148 9.1515C0.582855 9.62013 0.582855 10.3799 1.05148 10.8486C1.52011 11.3172 2.27991 11.3172 2.74854 10.8486L3.10001 10.4971V18.4C3.10001 19.0628 3.63727 19.6 4.30001 19.6H6.70001C7.36275 19.6 7.90001 19.0628 7.90001 18.4V16C7.90001 15.3373 8.43727 14.8 9.10001 14.8H11.5C12.1628 14.8 12.7 15.3373 12.7 16V18.4C12.7 19.0628 13.2373 19.6 13.9 19.6H16.3C16.9628 19.6 17.5 19.0628 17.5 18.4V10.4971L17.8515 10.8486C18.3201 11.3172 19.0799 11.3172 19.5485 10.8486C20.0172 10.3799 20.0172 9.62013 19.5485 9.1515L11.1485 0.751496Z" fill="#219653"/>
</svg>
