<svg width="25" height="24" viewBox="0 0 25 24" fill="none" xmlns="http://www.w3.org/2000/svg">
<path fill-rule="evenodd" clip-rule="evenodd" d="M22.3 12C22.3 17.302 18.0019 21.6 12.7 21.6C7.39804 21.6 3.09998 17.302 3.09998 12C3.09998 6.69809 7.39804 2.40002 12.7 2.40002C18.0019 2.40002 22.3 6.69809 22.3 12ZM15.1 8.40002C15.1 9.72551 14.0255 10.8 12.7 10.8C11.3745 10.8 10.3 9.72551 10.3 8.40002C10.3 7.07454 11.3745 6.00002 12.7 6.00002C14.0255 6.00002 15.1 7.07454 15.1 8.40002ZM12.6999 13.2C10.2788 13.2 8.19271 14.634 7.24446 16.6989C8.56481 18.2305 10.5192 19.2 12.7 19.2C14.8807 19.2 16.835 18.2305 18.1554 16.699C17.2071 14.634 15.121 13.2 12.6999 13.2Z" fill="#219653"/>
</svg>
